<?xml version="1.0" encoding="UTF-8"?>
<svg width="64px" height="64px" viewBox="0 0 64 64" version="1.1" xmlns="http://www.w3.org/2000/svg" xmlns:xlink="http://www.w3.org/1999/xlink">
    <title>Add new rep</title>
    <g id="scaffcert-main-panel" stroke="none" stroke-width="1" fill="none" fill-rule="evenodd">
        <g id="Groups-Add" transform="translate(-408, -134)">
            <g id="Group-11" transform="translate(368, 94)">
                <g id="Add-new-rep" transform="translate(40, 40)">
                    <circle id="Oval" fill="#E7E7FF" cx="32" cy="32" r="32"></circle>
                    <g id="people" transform="translate(16, 16)">
                        <g id="Group" transform="translate(20.4399, 2.6667)" fill-rule="nonzero" stroke="#2873B9" stroke-dasharray="0,0" stroke-linecap="round" stroke-linejoin="round" stroke-width="1.5">
                            <path d="M3.30666606,6.88000488 C1.46666606,6.81333822 0,5.30666908 0,3.44000244 C0,1.53333584 1.53333076,0 3.43999736,0 C5.34666395,0 6.87999471,1.54666917 6.87999471,3.44000244 C6.86666138,5.30666908 5.39999755,6.81333822 3.55999756,6.88000488 C3.47999756,6.86667155 3.38666605,6.86667155 3.30666606,6.88000488 Z" id="Vector"></path>
                            <path d="M2.18665059,16.5867195 C4.01331727,16.8933862 6.02665393,16.5733845 7.43998718,15.6267179 C9.31998714,14.3733846 9.31998714,12.3200539 7.43998718,11.0667206 C6.01332045,10.1200539 3.97331381,9.80004498 2.14664714,10.120045" id="Vector"></path>
                        </g>
                        <g id="Group" transform="translate(2.6699, 2.6667)" fill-rule="nonzero" stroke="#2873B9" stroke-dasharray="0,0" stroke-linecap="round" stroke-linejoin="round" stroke-width="1.5">
                            <path d="M5.54338582,6.88000488 C7.38338582,6.81333822 8.85005188,5.30666908 8.85005188,3.44000244 C8.85005188,1.53333584 7.31672112,0 5.41005452,0 C3.50338793,0 1.97005208,1.54666917 1.97005208,3.44000244 C1.98338542,5.30666908 3.45005433,6.81333822 5.29005432,6.88000488 C5.37005432,6.86667155 5.46338583,6.86667155 5.54338582,6.88000488 Z" id="Vector"></path>
                            <path d="M6.66333135,16.5867195 C4.83666468,16.8933862 2.82333326,16.5733845 1.41000001,15.6267179 C-0.469999949,14.3733846 -0.469999949,12.3200539 1.41000001,11.0667206 C2.83666674,10.1200539 4.87666305,9.80004498 6.70332972,10.120045" id="Vector"></path>
                        </g>
                        <g id="Group" transform="translate(10.71, 12.6266)" fill-rule="nonzero" stroke="#2873B9" stroke-dasharray="0,0" stroke-linecap="round" stroke-linejoin="round" stroke-width="1.5">
                            <path d="M5.03664653,6.88000488 C3.19664653,6.81333822 1.72998047,5.30666908 1.72998047,3.44000244 C1.72998047,1.53333584 3.26331123,0 5.16997782,0 C7.07664442,0 8.60998027,1.54666917 8.60998027,3.44000244 C8.59664693,5.30666908 7.12997802,6.82667155 5.28997803,6.88000488 C5.20997803,6.86667155 5.11664652,6.86667155 5.03664653,6.88000488 Z" id="Vector"></path>
                            <path d="M1.41000001,15.6400172 C3.54333337,17.0666839 7.03666608,17.0666839 9.16999944,15.6400172 C11.0499994,14.3866839 11.0499994,12.3333528 9.16999944,11.0800195 C7.0499994,9.66668622 3.54333337,9.66668622 1.41000001,11.0800195 C-0.469999949,12.3333528 -0.469999949,14.3866839 1.41000001,15.6400172 Z" id="Vector"></path>
                        </g>
                        <path d="M32,0 L32,32 L0,32 L0,0 L32,0 Z" id="Vector" opacity="0"></path>
                    </g>
                </g>
            </g>
        </g>
    </g>
</svg>