<?xml version="1.0" encoding="UTF-8"?>
<svg width="64px" height="64px" viewBox="0 0 64 64" version="1.1" xmlns="http://www.w3.org/2000/svg" xmlns:xlink="http://www.w3.org/1999/xlink">
    <title>JSA Hazards</title>
    <g id="scaffcert-main-panel" stroke="none" stroke-width="1" fill="none" fill-rule="evenodd">
        <g id="Forms-Hazards-1" transform="translate(-498, -134)">
            <g id="Group-11" transform="translate(458, 94)">
                <g id="JSA-Hazards" transform="translate(40, 40)">
                    <circle id="Oval" fill="#E7E7FF" cx="32" cy="32" r="32"></circle>
                    <g id="danger" transform="translate(16, 16)">
                        <line x1="16" y1="12" x2="16" y2="18.6666667" id="Vector" stroke="#2873B9" stroke-width="1.5" stroke-linecap="round" stroke-linejoin="round" stroke-dasharray="0,0"></line>
                        <path d="M7.92007319,28.5467046 C3.29340649,28.5467046 1.36007325,25.2400389 3.60007318,21.2000389 L7.76007334,13.7067057 L11.6800734,6.66670577 C14.0534067,2.38670572 17.9467402,2.38670572 20.3200734,6.66670577 L24.2400742,13.7200394 L28.4000727,21.2133725 C30.6400727,25.2533725 28.6934064,28.5600382 24.080073,28.5600382 L16.0000738,28.5600382 L16.0000738,28.5467046 L7.92007319,28.5467046 Z" id="Vector" stroke="#2873B9" stroke-width="1.5" stroke-linecap="round" stroke-linejoin="round" stroke-dasharray="0,0" fill-rule="nonzero"></path>
                        <line x1="15.9926758" y1="22.6666667" x2="16.1704536" y2="22.6666667" id="Vector" stroke="#2873B9" stroke-width="1.5" stroke-linecap="round" stroke-linejoin="round" stroke-dasharray="0,0"></line>
                        <path d="M32,0 L32,32 L0,32 L0,0 L32,0 Z" id="Vector" opacity="0"></path>
                    </g>
                </g>
            </g>
        </g>
    </g>
</svg>