<?xml version="1.0" encoding="UTF-8"?>
<svg width="26.6666667px" height="26.6666667px" viewBox="0 0 26.6666667 26.6666667" version="1.1" xmlns="http://www.w3.org/2000/svg" xmlns:xlink="http://www.w3.org/1999/xlink">
    <title>close-circle</title>
    <g id="scaffcert-main-panel" stroke="none" stroke-width="1" fill="none" fill-rule="evenodd">
        <g id="Clients-Add" transform="translate(-1018.6667, -120.6667)">
            <g id="Group-11" transform="translate(368, 94)">
                <g id="close-circle" transform="translate(648, 24)">
                    <path d="M2.66666667,16 C2.66666667,23.346667 8.65333303,29.3333333 16,29.3333333 C23.346667,29.3333333 29.3333333,23.346667 29.3333333,16 C29.3333333,8.65333303 23.346667,2.66666667 16,2.66666667 C8.65333303,2.66666667 2.66666667,8.65333303 2.66666667,16 Z M20.4799995,20.4799995 C20.2799995,20.6799996 20.0266666,20.7733332 19.7733332,20.7733332 C19.5199999,20.7733332 19.2666669,20.6799996 19.0666669,20.4799995 L16,17.4133339 L12.9333331,20.4799995 C12.7333331,20.6799996 12.4800001,20.7733332 12.2266668,20.7733332 C11.9733334,20.7733332 11.7200005,20.6799996 11.5200005,20.4799995 C11.1333338,20.0933329 11.1333338,19.4533336 11.5200005,19.0666669 L14.5866661,16 L11.5200005,12.9333331 C11.1333338,12.5466664 11.1333338,11.9066671 11.5200005,11.5200005 C11.9066671,11.1333338 12.5466664,11.1333338 12.9333331,11.5200005 L16,14.5866661 L19.0666669,11.5200005 C19.4533336,11.1333338 20.0933329,11.1333338 20.4799995,11.5200005 C20.8666662,11.9066671 20.8666662,12.5466664 20.4799995,12.9333331 L17.4133339,16 L20.4799995,19.0666669 C20.8666662,19.4533336 20.8666662,20.0933329 20.4799995,20.4799995 Z" id="Vector" fill="#2873B9"></path>
                    <path d="M32,0 L32,32 L0,32 L0,0 L32,0 Z" id="Vector" opacity="0" transform="translate(16, 16) rotate(-180) translate(-16, -16)"></path>
                </g>
            </g>
        </g>
    </g>
</svg>