<?xml version="1.0" encoding="UTF-8"?>
<svg width="17.667669px" height="17.667669px" viewBox="0 0 17.667669 17.667669" version="1.1" xmlns="http://www.w3.org/2000/svg" xmlns:xlink="http://www.w3.org/1999/xlink">
    <title>document-text</title>
    <g id="scaffcert-main-panel" stroke="none" stroke-width="1" fill="none" fill-rule="evenodd">
        <g id="Job-table-after-return" transform="translate(-852.1667, -250.1657)">
            <g id="Group-11" transform="translate(286, 234)">
                <g id="document-text" transform="translate(565, 15)">
                    <path d="M18.3333333,8.33333333 L18.3333333,12.5 C18.3333333,16.6666667 16.6666667,18.3333333 12.5,18.3333333 L7.5,18.3333333 C3.33333333,18.3333333 1.66666667,16.6666667 1.66666667,12.5 L1.66666667,7.5 C1.66666667,3.33333333 3.33333333,1.66666667 7.5,1.66666667 L11.6666667,1.66666667" id="Vector" stroke="#1C1C1C" stroke-linecap="round" stroke-linejoin="round" stroke-dasharray="0,0" fill-rule="nonzero"></path>
                    <path d="M15,8.33333333 C12.5,8.33333333 11.6666667,7.5 11.6666667,5 L11.6666667,1.66666667 L18.3333333,8.33333333 L15,8.33333333 Z" id="Vector" stroke="#1C1C1C" stroke-linecap="round" stroke-linejoin="round" stroke-dasharray="0,0" fill-rule="nonzero"></path>
                    <line x1="5.83333333" y1="10.8333333" x2="10.8333333" y2="10.8333333" id="Vector" stroke="#1C1C1C" stroke-linecap="round" stroke-linejoin="round" stroke-dasharray="0,0"></line>
                    <line x1="5.83333333" y1="14.1666667" x2="9.16666667" y2="14.1666667" id="Vector" stroke="#1C1C1C" stroke-linecap="round" stroke-linejoin="round" stroke-dasharray="0,0"></line>
                    <path d="M20,0 L20,20 L0,20 L0,0 L20,0 Z" id="Vector" opacity="0"></path>
                </g>
            </g>
        </g>
    </g>
</svg>