<svg width="60" height="60" viewBox="0 0 60 60" fill="none" xmlns="http://www.w3.org/2000/svg">
<path d="M54.9 5C54.9 5 57.8 6.7 58 10.9C58.2 15.1 58.3 44.8 58.3 44.8L27.5 46.6V25.8L46.2 6.1L54.9 5Z" fill="#2873B9" stroke="#2873B9" stroke-miterlimit="10"/>
<mask id="mask0_1_46" style="mask-type:luminance" maskUnits="userSpaceOnUse" x="0" y="0" width="60" height="60">
<path d="M60 0H0V60H60V0Z" fill="white"/>
</mask>
<g mask="url(#mask0_1_46)">
<path d="M30 35.7H27.2C24.1 35.7 21.5 33.2 21.5 30V1.7H47C51.2 1.7 55 4 56.9 7.5" fill="#2873B9"/>
<path d="M30 35.7H27.2C24.1 35.7 21.5 33.2 21.5 30V1.7H47C51.2 1.7 55 4 56.9 7.5" stroke="#2873B9" stroke-linecap="round" stroke-linejoin="round"/>
<path d="M58.3 44.2C58.3 48.9 54.5 52.7 49.8 52.7H47C47 49.6 44.5 47 41.3 47C38.2 47 35.6 49.5 35.6 52.7H24.4C24.4 49.6 21.9 47 18.7 47C15.6 47 13 49.5 13 52.7H10.2C5.50001 52.7 1.70001 48.9 1.70001 44.2V35.7H10.2C11.8 35.7 13 34.4 13 32.9V24.4C13 22.8 11.7 21.6 10.2 21.6H6.50001L11.3 13.1C12.3 11.3 14.2 10.2 16.2 10.2H21.4V30C21.4 33.1 23.9 35.7 27.1 35.7H29.9" fill="#2873B9"/>
<path d="M58.3 44.2C58.3 48.9 54.5 52.7 49.8 52.7H47C47 49.6 44.5 47 41.3 47C38.2 47 35.6 49.5 35.6 52.7H24.4C24.4 49.6 21.9 47 18.7 47C15.6 47 13 49.5 13 52.7H10.2C5.50001 52.7 1.70001 48.9 1.70001 44.2V35.7H10.2C11.8 35.7 13 34.4 13 32.9V24.4C13 22.8 11.7 21.6 10.2 21.6H6.50001L11.3 13.1C12.3 11.3 14.2 10.2 16.2 10.2H21.4V30C21.4 33.1 23.9 35.7 27.1 35.7H29.9" stroke="#2873B9" stroke-linecap="round" stroke-linejoin="round"/>
<path d="M41.3 58.3C44.4 58.3 47 55.8 47 52.6C47 49.5 44.5 46.9 41.3 46.9C38.2 46.9 35.6 49.4 35.6 52.6C35.7 55.8 38.2 58.3 41.3 58.3Z" stroke="#2873B9" stroke-linecap="round" stroke-linejoin="round"/>
<path d="M18.7 58.3C21.8 58.3 24.4 55.8 24.4 52.6C24.4 49.5 21.9 46.9 18.7 46.9C15.6 46.9 13 49.4 13 52.6C13 55.8 15.6 58.3 18.7 58.3Z" stroke="#2873B9" stroke-linecap="round" stroke-linejoin="round"/>
<path d="M1.70001 35.7H10.2C11.8 35.7 13 34.4 13 32.9V24.4C13 22.8 11.7 21.6 10.2 21.6H6.50001L1.70001 30.1V35.7Z" stroke="#2873B9" stroke-linecap="round" stroke-linejoin="round"/>
<path d="M58.3 18.7H41.3" stroke="white" stroke-linecap="round" stroke-linejoin="round"/>
<path d="M58.3 27.2H47" stroke="white" stroke-linecap="round" stroke-linejoin="round"/>
<path d="M58.3 35.7H52.6" stroke="white" stroke-linecap="round" stroke-linejoin="round"/>
</g>
</svg>
