<?xml version="1.0" encoding="UTF-8"?>
<svg width="17.6666667px" height="17.6666667px" viewBox="0 0 17.6666667 17.6666667" version="1.1" xmlns="http://www.w3.org/2000/svg" xmlns:xlink="http://www.w3.org/1999/xlink">
    <title>group</title>
    <g id="scaffcert-main-panel" stroke="none" stroke-width="1" fill="none" fill-rule="evenodd">
        <g id="Job-table-after-return" transform="translate(-917.1667, -250.1667)">
            <g id="Group-11" transform="translate(286, 234)">
                <g id="Group-17" transform="translate(565, 15)">
                    <g id="group" transform="translate(75, 10) scale(-1, 1) translate(-75, -10)translate(65, 0)">
                        <path d="M10,11.6666667 L10.8333333,11.6666667 C11.75,11.6666667 12.5,10.9166667 12.5,10 L12.5,1.66666667 L5,1.66666667 C3.75,1.66666667 2.65834148,2.35832314 2.0916748,3.37498983" id="Vector" stroke="#2873B9" stroke-linecap="round" stroke-linejoin="round" stroke-dasharray="0,0" fill-rule="nonzero"></path>
                        <path d="M1.66666667,14.1666667 C1.66666667,15.55 2.78333336,16.6666667 4.16666667,16.6666667 L5,16.6666667 C5,15.75 5.74999998,15 6.66666667,15 C7.58333335,15 8.33333333,15.75 8.33333333,16.6666667 L11.6666667,16.6666667 C11.6666667,15.75 12.4166666,15 13.3333333,15 C14.25,15 15,15.75 15,16.6666667 L15.8333333,16.6666667 C17.2166666,16.6666667 18.3333333,15.55 18.3333333,14.1666667 L18.3333333,11.6666667 L15.8333333,11.6666667 C15.375,11.6666667 15,11.2916667 15,10.8333333 L15,8.33333333 C15,7.87499999 15.375,7.5 15.8333333,7.5 L16.908315,7.5 L15.4833476,5.00834147 C15.1833476,4.4916748 14.6333557,4.16666667 14.0333557,4.16666667 L12.5,4.16666667 L12.5,10 C12.5,10.9166667 11.75,11.6666667 10.8333333,11.6666667 L10,11.6666667" id="Vector" stroke="#2873B9" stroke-linecap="round" stroke-linejoin="round" stroke-dasharray="0,0" fill-rule="nonzero"></path>
                        <path d="M6.66666667,18.3333333 C5.74619204,18.3333333 5,17.5871413 5,16.6666667 C5,15.746192 5.74619204,15 6.66666667,15 C7.5871413,15 8.33333333,15.746192 8.33333333,16.6666667 C8.33333333,17.5871413 7.5871413,18.3333333 6.66666667,18.3333333 Z" id="Vector" stroke="#2873B9" stroke-linecap="round" stroke-linejoin="round" stroke-dasharray="0,0"></path>
                        <path d="M13.3333333,18.3333333 C12.4128587,18.3333333 11.6666667,17.5871413 11.6666667,16.6666667 C11.6666667,15.746192 12.4128587,15 13.3333333,15 C14.253808,15 15,15.746192 15,16.6666667 C15,17.5871413 14.253808,18.3333333 13.3333333,18.3333333 Z" id="Vector" stroke="#2873B9" stroke-linecap="round" stroke-linejoin="round" stroke-dasharray="0,0"></path>
                        <path d="M18.3333333,11.6666667 L15.8333333,11.6666667 C15.375,11.6666667 15,11.2916667 15,10.8333333 L15,8.33333333 C15,7.87499999 15.375,7.5 15.8333333,7.5 L16.908315,7.5 L18.3333333,10 L18.3333333,11.6666667 Z" id="Vector" stroke="#2873B9" stroke-linecap="round" stroke-linejoin="round" stroke-dasharray="0,0" fill-rule="nonzero"></path>
                        <line x1="1.66666667" y1="6.66666667" x2="6.66666667" y2="6.66666667" id="Vector" stroke="#2873B9" stroke-linecap="round" stroke-linejoin="round" stroke-dasharray="0,0"></line>
                        <line x1="1.66666667" y1="9.16666667" x2="5" y2="9.16666667" id="Vector" stroke="#2873B9" stroke-linecap="round" stroke-linejoin="round" stroke-dasharray="0,0"></line>
                        <line x1="1.66666667" y1="11.6666667" x2="3.33333333" y2="11.6666667" id="Vector" stroke="#2873B9" stroke-linecap="round" stroke-linejoin="round" stroke-dasharray="0,0"></line>
                        <path d="M20,0 L20,20 L0,20 L0,0 L20,0 Z" id="Vector" opacity="0"></path>
                    </g>
                </g>
            </g>
        </g>
    </g>
</svg>