<?xml version="1.0" encoding="UTF-8"?>
<svg width="64px" height="64px" viewBox="0 0 64 64" version="1.1" xmlns="http://www.w3.org/2000/svg" xmlns:xlink="http://www.w3.org/1999/xlink">
    <title>Risk Control</title>
    <g id="scaffcert-main-panel" stroke="none" stroke-width="1" fill="none" fill-rule="evenodd">
        <g id="Forms-Risk-1" transform="translate(-498, -134)">
            <g id="Group-11" transform="translate(458, 94)">
                <g id="Risk-Control" transform="translate(40, 40)">
                    <circle id="Oval" fill="#E7E7FF" cx="32" cy="32" r="32"></circle>
                    <g id="information" transform="translate(16, 16)">
                        <path d="M17.6800067,3.26659505 L19.7866732,5.06659492 C20.1866732,5.39992825 20.9466738,5.67992846 21.4800072,5.67992846 L23.7466723,5.67992846 C25.1600056,5.67992846 26.3200073,6.83992831 26.3200073,8.25326157 L26.3200073,10.519928 C26.3200073,11.0532613 26.6000086,11.7999276 26.933342,12.1999276 L28.7333399,14.3065948 C29.5200066,15.2399282 29.5200066,16.7465951 28.7333399,17.6532618 L26.933342,19.7599284 C26.6000086,20.1599284 26.3200073,20.9065953 26.3200073,21.4399287 L26.3200073,23.7065964 C26.3200073,25.1199296 25.1600056,26.2799276 23.7466723,26.2799276 L21.4800072,26.2799276 C20.9466738,26.2799276 20.2000069,26.5599289 19.8000069,26.8932622 L17.6933403,28.6932627 C16.760007,29.4799294 15.25334,29.4799294 14.3466733,28.6932627 L12.2400068,26.8932622 C11.8400067,26.5599289 11.0800064,26.2799276 10.5600065,26.2799276 L8.22667313,26.2799276 C6.81333987,26.2799276 5.65333939,25.1199296 5.65333939,23.7065964 L5.65333939,21.4265951 C5.65333939,20.9065951 5.38667297,20.146595 5.05333964,19.7599284 L3.25333985,17.6399282 C2.48000654,16.7199282 2.48000654,15.2265948 3.25333985,14.3065948 L5.05333964,12.1865953 C5.38667297,11.7865953 5.65333939,11.039928 5.65333939,10.519928 L5.65333939,8.26659457 C5.65333939,6.85326131 6.81333987,5.69326146 8.22667313,5.69326146 L10.5333398,5.69326146 C11.0666732,5.69326146 11.8133395,5.41326157 12.2133395,5.07992824 L14.3333397,3.26659505 C15.266673,2.47992841 16.77334,2.47992841 17.6800067,3.26659505 Z" id="Vector" stroke="#2873B9" stroke-width="1.5" stroke-linecap="round" stroke-linejoin="round" stroke-dasharray="0,0" fill-rule="nonzero"></path>
                        <line x1="16" y1="10.8400065" x2="16" y2="17.2800064" id="Vector" stroke="#2873B9" stroke-width="1.5" stroke-linecap="round" stroke-linejoin="round" stroke-dasharray="0,0" fill-rule="nonzero"></line>
                        <line x1="15.9926758" y1="21.3333333" x2="16.1704536" y2="21.3333333" id="Vector" stroke="#2873B9" stroke-width="1.5" stroke-linecap="round" stroke-linejoin="round" stroke-dasharray="0,0"></line>
                        <path d="M32,0 L32,32 L0,32 L0,0 L32,0 Z" id="Vector" opacity="0"></path>
                    </g>
                </g>
            </g>
        </g>
    </g>
</svg>